<svg width="107" height="35" viewBox="0 0 107 35" fill="none" xmlns="http://www.w3.org/2000/svg">
<rect x="0.75" y="0.75" width="105.5" height="33.5" rx="3.25" fill="#1C1C17"/>
<rect x="0.75" y="0.75" width="105.5" height="33.5" rx="3.25" stroke="#3E3D3A" stroke-width="1.5"/>
<path d="M21.376 23.154C18.492 23.154 16.574 21.082 16.574 17.946C16.574 14.824 18.548 12.71 21.446 12.71C23.728 12.71 25.478 14.068 25.856 16.14H24.386C24.008 14.824 22.874 14.026 21.404 14.026C19.36 14.026 18.016 15.566 18.016 17.932C18.016 20.298 19.36 21.838 21.404 21.838C22.888 21.838 24.064 21.04 24.442 19.794H25.898C25.464 21.81 23.658 23.154 21.376 23.154ZM26.9083 19.57C26.9083 17.456 28.4203 15.972 30.4783 15.972C32.5223 15.972 34.0343 17.456 34.0343 19.57C34.0343 21.684 32.5223 23.168 30.4783 23.168C28.4203 23.168 26.9083 21.684 26.9083 19.57ZM28.2383 19.57C28.2383 20.998 29.1483 21.992 30.4783 21.992C31.7943 21.992 32.7183 20.998 32.7183 19.57C32.7183 18.142 31.7943 17.148 30.4783 17.148C29.1483 17.148 28.2383 18.142 28.2383 19.57ZM35.4911 26.066V16.154H36.6811L36.7791 17.386C37.2411 16.448 38.1651 15.958 39.2571 15.958C41.2171 15.958 42.4351 17.428 42.4351 19.528C42.4351 21.614 41.2871 23.182 39.2571 23.182C38.1651 23.182 37.2551 22.72 36.8071 21.88V26.066H35.4911ZM36.8211 19.584C36.8211 20.984 37.6331 21.992 38.9771 21.992C40.3211 21.992 41.1191 20.984 41.1191 19.584C41.1191 18.17 40.3211 17.162 38.9771 17.162C37.6331 17.162 36.8211 18.156 36.8211 19.584ZM44.5296 14.53C44.0536 14.53 43.6616 14.138 43.6616 13.662C43.6616 13.172 44.0536 12.794 44.5296 12.794C45.0056 12.794 45.3976 13.172 45.3976 13.662C45.3976 14.138 45.0056 14.53 44.5296 14.53ZM43.8856 23V16.154H45.2016V23H43.8856ZM50.0662 23.168C48.0502 23.168 46.6642 21.712 46.6642 19.584C46.6642 17.442 48.0222 15.958 50.0102 15.958C51.9562 15.958 53.2302 17.302 53.2302 19.332V19.822L47.9382 19.836C48.0362 21.278 48.7922 22.076 50.0942 22.076C51.1162 22.076 51.7882 21.656 52.0122 20.872H53.2442C52.9082 22.342 51.7602 23.168 50.0662 23.168ZM50.0102 17.064C48.8622 17.064 48.1342 17.75 47.9662 18.954H51.9142C51.9142 17.82 51.1722 17.064 50.0102 17.064ZM57.444 23.168C55.456 23.168 54.252 21.684 54.252 19.598C54.252 17.498 55.47 15.958 57.5 15.958C58.55 15.958 59.432 16.42 59.894 17.26V12.696H61.196V23H60.02L59.908 21.754C59.46 22.692 58.536 23.168 57.444 23.168ZM57.71 21.978C59.054 21.978 59.88 20.984 59.88 19.556C59.88 18.156 59.054 17.148 57.71 17.148C56.366 17.148 55.582 18.156 55.582 19.556C55.582 20.97 56.366 21.978 57.71 21.978ZM64.7046 19.962H63.6826C63.5426 18.912 63.4446 17.05 63.4446 15.23V12.878H64.9566V15.23C64.9566 17.078 64.8446 18.926 64.7046 19.962ZM64.2006 23.196C63.6406 23.196 63.1926 22.748 63.1926 22.202C63.1926 21.656 63.6406 21.208 64.2006 21.208C64.7326 21.208 65.1946 21.656 65.1946 22.202C65.1946 22.748 64.7326 23.196 64.2006 23.196Z" fill="white"/>
<path d="M88.3334 13.5L81.0001 20.8333L77.6667 17.5" stroke="#4ADE80" stroke-width="1.5" stroke-linecap="round" stroke-linejoin="round"/>
</svg>
