<svg width="118" height="38" viewBox="0 0 118 38" fill="none" xmlns="http://www.w3.org/2000/svg">
<rect x="0.75" y="0.75" width="116.5" height="36.5" rx="7.25" fill="#1C1C17"/>
<rect x="0.75" y="0.75" width="116.5" height="36.5" rx="7.25" stroke="white" stroke-width="1.5"/>
<path d="M22.144 25.176C18.848 25.176 16.656 22.808 16.656 19.224C16.656 15.656 18.912 13.24 22.224 13.24C24.832 13.24 26.832 14.792 27.264 17.16H25.584C25.152 15.656 23.856 14.744 22.176 14.744C19.84 14.744 18.304 16.504 18.304 19.208C18.304 21.912 19.84 23.672 22.176 23.672C23.872 23.672 25.216 22.76 25.648 21.336H27.312C26.816 23.64 24.752 25.176 22.144 25.176ZM28.4666 21.08C28.4666 18.664 30.1946 16.968 32.5466 16.968C34.8826 16.968 36.6106 18.664 36.6106 21.08C36.6106 23.496 34.8826 25.192 32.5466 25.192C30.1946 25.192 28.4666 23.496 28.4666 21.08ZM29.9866 21.08C29.9866 22.712 31.0266 23.848 32.5466 23.848C34.0506 23.848 35.1066 22.712 35.1066 21.08C35.1066 19.448 34.0506 18.312 32.5466 18.312C31.0266 18.312 29.9866 19.448 29.9866 21.08ZM38.2755 28.504V17.176H39.6355L39.7475 18.584C40.2755 17.512 41.3315 16.952 42.5795 16.952C44.8195 16.952 46.2115 18.632 46.2115 21.032C46.2115 23.416 44.8995 25.208 42.5795 25.208C41.3315 25.208 40.2915 24.68 39.7795 23.72V28.504H38.2755ZM39.7955 21.096C39.7955 22.696 40.7235 23.848 42.2595 23.848C43.7955 23.848 44.7075 22.696 44.7075 21.096C44.7075 19.48 43.7955 18.328 42.2595 18.328C40.7235 18.328 39.7955 19.464 39.7955 21.096ZM48.6053 15.32C48.0613 15.32 47.6133 14.872 47.6133 14.328C47.6133 13.768 48.0613 13.336 48.6053 13.336C49.1493 13.336 49.5973 13.768 49.5973 14.328C49.5973 14.872 49.1493 15.32 48.6053 15.32ZM47.8693 25V17.176H49.3733V25H47.8693ZM54.9328 25.192C52.6288 25.192 51.0448 23.528 51.0448 21.096C51.0448 18.648 52.5968 16.952 54.8688 16.952C57.0928 16.952 58.5487 18.488 58.5487 20.808V21.368L52.5008 21.384C52.6128 23.032 53.4768 23.944 54.9648 23.944C56.1328 23.944 56.9008 23.464 57.1568 22.568H58.5648C58.1808 24.248 56.8688 25.192 54.9328 25.192ZM54.8688 18.216C53.5568 18.216 52.7248 19 52.5328 20.376H57.0448C57.0448 19.08 56.1968 18.216 54.8688 18.216ZM63.3646 25.192C61.0926 25.192 59.7166 23.496 59.7166 21.112C59.7166 18.712 61.1086 16.952 63.4286 16.952C64.6286 16.952 65.6366 17.48 66.1646 18.44V13.224H67.6526V25H66.3086L66.1806 23.576C65.6686 24.648 64.6126 25.192 63.3646 25.192ZM63.6686 23.832C65.2046 23.832 66.1486 22.696 66.1486 21.064C66.1486 19.464 65.2046 18.312 63.6686 18.312C62.1326 18.312 61.2366 19.464 61.2366 21.064C61.2366 22.68 62.1326 23.832 63.6686 23.832ZM71.6624 21.528H70.4944C70.3344 20.328 70.2224 18.2 70.2224 16.12V13.432H71.9504V16.12C71.9504 18.232 71.8224 20.344 71.6624 21.528ZM71.0864 25.224C70.4464 25.224 69.9344 24.712 69.9344 24.088C69.9344 23.464 70.4464 22.952 71.0864 22.952C71.6944 22.952 72.2224 23.464 72.2224 24.088C72.2224 24.712 71.6944 25.224 71.0864 25.224Z" fill="white"/>
<path d="M98.6666 14L89.4999 23.1667L85.3333 19" stroke="#4ADE80" stroke-width="1.5" stroke-linecap="round" stroke-linejoin="round"/>
</svg>
