<svg width="99" height="38" viewBox="0 0 99 38" fill="none" xmlns="http://www.w3.org/2000/svg">
<rect x="0.75" y="0.75" width="97.5" height="36.5" rx="7.25" fill="white"/>
<rect x="0.75" y="0.75" width="97.5" height="36.5" rx="7.25" stroke="black" stroke-width="1.5"/>
<path d="M22.144 25.176C18.848 25.176 16.656 22.808 16.656 19.224C16.656 15.656 18.912 13.24 22.224 13.24C24.832 13.24 26.832 14.792 27.264 17.16H25.584C25.152 15.656 23.856 14.744 22.176 14.744C19.84 14.744 18.304 16.504 18.304 19.208C18.304 21.912 19.84 23.672 22.176 23.672C23.872 23.672 25.216 22.76 25.648 21.336H27.312C26.816 23.64 24.752 25.176 22.144 25.176ZM28.4666 21.08C28.4666 18.664 30.1946 16.968 32.5466 16.968C34.8826 16.968 36.6106 18.664 36.6106 21.08C36.6106 23.496 34.8826 25.192 32.5466 25.192C30.1946 25.192 28.4666 23.496 28.4666 21.08ZM29.9866 21.08C29.9866 22.712 31.0266 23.848 32.5466 23.848C34.0506 23.848 35.1066 22.712 35.1066 21.08C35.1066 19.448 34.0506 18.312 32.5466 18.312C31.0266 18.312 29.9866 19.448 29.9866 21.08ZM38.2755 28.504V17.176H39.6355L39.7475 18.584C40.2755 17.512 41.3315 16.952 42.5795 16.952C44.8195 16.952 46.2115 18.632 46.2115 21.032C46.2115 23.416 44.8995 25.208 42.5795 25.208C41.3315 25.208 40.2915 24.68 39.7795 23.72V28.504H38.2755ZM39.7955 21.096C39.7955 22.696 40.7235 23.848 42.2595 23.848C43.7955 23.848 44.7075 22.696 44.7075 21.096C44.7075 19.48 43.7955 18.328 42.2595 18.328C40.7235 18.328 39.7955 19.464 39.7955 21.096ZM46.8516 28.504V27.272H47.8596C48.5796 27.272 49.1556 27.16 49.5236 26.168L49.7956 25.416L46.6436 17.176H48.2276L50.4996 23.48L52.8196 17.176H54.3716L50.6756 26.76C50.1476 28.104 49.3636 28.664 48.1636 28.664C47.6676 28.664 47.2516 28.6 46.8516 28.504Z" fill="black"/>
<g clip-path="url(#clip0_79_11)">
<path d="M79.6667 15.6665H71.3334C70.4129 15.6665 69.6667 16.4127 69.6667 17.3332V25.6665C69.6667 26.587 70.4129 27.3332 71.3334 27.3332H79.6667C80.5872 27.3332 81.3334 26.587 81.3334 25.6665V17.3332C81.3334 16.4127 80.5872 15.6665 79.6667 15.6665Z" stroke="black" stroke-width="1.5" stroke-linecap="round" stroke-linejoin="round"/>
<path d="M66.3334 22.3332C65.4167 22.3332 64.6667 21.5832 64.6667 20.6665V12.3332C64.6667 11.4165 65.4167 10.6665 66.3334 10.6665H74.6667C75.5834 10.6665 76.3334 11.4165 76.3334 12.3332" stroke="black" stroke-width="1.5" stroke-linecap="round" stroke-linejoin="round"/>
</g>
<defs>
<clipPath id="clip0_79_11">
<rect width="20" height="20" fill="white" transform="translate(63 9)"/>
</clipPath>
</defs>
</svg>
