<svg width="90" height="35" viewBox="0 0 90 35" fill="none" xmlns="http://www.w3.org/2000/svg">
<rect x="0.5" y="0.5" width="89" height="34" rx="3.5" fill="#1C1C17"/>
<rect x="0.5" y="0.5" width="89" height="34" rx="3.5" stroke="#3E3D3A"/>
<path d="M21.376 23.154C18.492 23.154 16.574 21.082 16.574 17.946C16.574 14.824 18.548 12.71 21.446 12.71C23.728 12.71 25.478 14.068 25.856 16.14H24.386C24.008 14.824 22.874 14.026 21.404 14.026C19.36 14.026 18.016 15.566 18.016 17.932C18.016 20.298 19.36 21.838 21.404 21.838C22.888 21.838 24.064 21.04 24.442 19.794H25.898C25.464 21.81 23.658 23.154 21.376 23.154ZM26.9083 19.57C26.9083 17.456 28.4203 15.972 30.4783 15.972C32.5223 15.972 34.0343 17.456 34.0343 19.57C34.0343 21.684 32.5223 23.168 30.4783 23.168C28.4203 23.168 26.9083 21.684 26.9083 19.57ZM28.2383 19.57C28.2383 20.998 29.1483 21.992 30.4783 21.992C31.7943 21.992 32.7183 20.998 32.7183 19.57C32.7183 18.142 31.7943 17.148 30.4783 17.148C29.1483 17.148 28.2383 18.142 28.2383 19.57ZM35.4911 26.066V16.154H36.6811L36.7791 17.386C37.2411 16.448 38.1651 15.958 39.2571 15.958C41.2171 15.958 42.4351 17.428 42.4351 19.528C42.4351 21.614 41.2871 23.182 39.2571 23.182C38.1651 23.182 37.2551 22.72 36.8071 21.88V26.066H35.4911ZM36.8211 19.584C36.8211 20.984 37.6331 21.992 38.9771 21.992C40.3211 21.992 41.1191 20.984 41.1191 19.584C41.1191 18.17 40.3211 17.162 38.9771 17.162C37.6331 17.162 36.8211 18.156 36.8211 19.584ZM42.9952 26.066V24.988H43.8772C44.5072 24.988 45.0112 24.89 45.3332 24.022L45.5712 23.364L42.8132 16.154H44.1992L46.1872 21.67L48.2172 16.154H49.5752L46.3412 24.54C45.8792 25.716 45.1932 26.206 44.1432 26.206C43.7092 26.206 43.3452 26.15 42.9952 26.066Z" fill="white"/>
<path d="M71.3333 14.8335H64.6666C63.9302 14.8335 63.3333 15.4304 63.3333 16.1668V22.8335C63.3333 23.5699 63.9302 24.1668 64.6666 24.1668H71.3333C72.0696 24.1668 72.6666 23.5699 72.6666 22.8335V16.1668C72.6666 15.4304 72.0696 14.8335 71.3333 14.8335Z" stroke="white" stroke-width="1.5" stroke-linecap="round" stroke-linejoin="round"/>
<path d="M60.6666 20.1668C59.9333 20.1668 59.3333 19.5668 59.3333 18.8335V12.1668C59.3333 11.4335 59.9333 10.8335 60.6666 10.8335H67.3333C68.0666 10.8335 68.6666 11.4335 68.6666 12.1668" stroke="white" stroke-width="1.5" stroke-linecap="round" stroke-linejoin="round"/>
</svg>
